<?xml version="1.0"?>
<svg xmlns="http://www.w3.org/2000/svg" height="512px" viewBox="0 0 128 128" width="512px"><g><g><path d="m63.764 94.32a33.4 33.4 0 0 1 -9.082 3.723 1.75 1.75 0 0 0 .42 3.449 1.7 1.7 0 0 0 .421-.052 36.886 36.886 0 0 0 10.034-4.114 1.75 1.75 0 0 0 -1.793-3.006z" data-original="#000000" class="active-path" data-old_color="#000000" fill="#6246EA"/><path d="m23.808 65a4.75 4.75 0 1 0 4.75 4.75 4.755 4.755 0 0 0 -4.75-4.75zm0 6a1.25 1.25 0 1 1 1.25-1.25 1.251 1.251 0 0 1 -1.25 1.25z" data-original="#000000" class="active-path" data-old_color="#000000" fill="#6246EA"/><path d="m38.808 65a4.75 4.75 0 1 0 4.75 4.75 4.755 4.755 0 0 0 -4.75-4.75zm0 6a1.25 1.25 0 1 1 1.25-1.25 1.251 1.251 0 0 1 -1.25 1.25z" data-original="#000000" class="active-path" data-old_color="#000000" fill="#6246EA"/><path d="m123.25 43.558c0-21.4-18.643-38.808-41.558-38.808-18.261 0-33.8 11.061-39.359 26.382-21.165 1.88-37.583 18.631-37.583 38.618 0 13.457 7.588 26.063 19.862 33.1 1.024 7 .352 14.358-1.658 17.757a1.75 1.75 0 0 0 1.835 2.61 29.641 29.641 0 0 0 20.211-14.68c.435.014.871.023 1.311.023 16.891 0 31.825-9.382 38.278-23.681a29.623 29.623 0 0 0 18.623 12.147 1.749 1.749 0 0 0 1.836-2.609c-2.007-3.4-2.68-10.761-1.66-17.763 12.273-7.032 19.862-19.637 19.862-33.096zm-76.94 61.5c-.76 0-1.509-.029-2.25-.067a1.741 1.741 0 0 0 -1.654.96 26.154 26.154 0 0 1 -14.984 12.965c1.5-5.1 1.422-12.007.515-17.465a1.751 1.751 0 0 0 -.888-1.248c-11.6-6.335-18.8-18-18.8-30.455 0-17.727 14.3-32.663 32.973-34.983a36.315 36.315 0 0 0 -1.088 8.791c0 21.4 18.642 38.807 41.557 38.807h.168c-5.609 13.657-19.621 22.697-35.549 22.697zm54.64-31.053a1.749 1.749 0 0 0 -.888 1.25c-.9 5.461-.978 12.375.518 17.469a26.136 26.136 0 0 1 -14.98-12.964 1.752 1.752 0 0 0 -1.564-.964h-.095c-.743.04-1.491.066-2.245.066-20.985 0-38.057-15.839-38.057-35.307s17.068-35.305 38.053-35.305 38.058 15.839 38.058 35.308c0 12.453-7.204 24.121-18.8 30.449z" data-original="#000000" class="active-path" data-old_color="#000000" fill="#6246EA"/><path d="m104.192 38.808a4.75 4.75 0 1 0 4.75 4.75 4.755 4.755 0 0 0 -4.75-4.75zm0 6a1.25 1.25 0 1 1 1.25-1.25 1.252 1.252 0 0 1 -1.25 1.25z" data-original="#000000" class="active-path" data-old_color="#000000" fill="#6246EA"/><path d="m89.192 38.808a4.75 4.75 0 1 0 4.75 4.75 4.755 4.755 0 0 0 -4.75-4.75zm0 6a1.25 1.25 0 1 1 1.25-1.25 1.252 1.252 0 0 1 -1.25 1.25z" data-original="#000000" class="active-path" data-old_color="#000000" fill="#6246EA"/><path d="m74.192 38.808a4.75 4.75 0 1 0 4.75 4.75 4.755 4.755 0 0 0 -4.75-4.75zm0 6a1.25 1.25 0 1 1 1.25-1.25 1.252 1.252 0 0 1 -1.25 1.25z" data-original="#000000" class="active-path" data-old_color="#000000" fill="#6246EA"/><path d="m59.192 38.808a4.75 4.75 0 1 0 4.75 4.75 4.755 4.755 0 0 0 -4.75-4.75zm0 6a1.25 1.25 0 1 1 1.25-1.25 1.252 1.252 0 0 1 -1.25 1.25z" data-original="#000000" class="active-path" data-old_color="#000000" fill="#6246EA"/></g></g> </svg>
